# xmcd CD database file
#
# Track frame offsets:
#	150
#	17327
#	30874
#	44965
#	69181
#	87319
#	106052
#	123004
#	139665
#	161354
#	177474
#	198969
#	227216
#
# Disc length: 3203 seconds
#
# Revision: 1
# Processed by: cddbd v1.5.2PL0 Copyright (c) Steve Scherf et al.
# Submitted via: CDex 1.51
#
DISCID=9b0c810d
DTITLE=Jimmie Dale Gilmore - One Endless Night
DYEAR=2000
DGENRE=Country
TTITLE0=One Endless Night
TTITLE1=Banks of the Guadalupe
TTITLE2=No Lonesome Tune
TTITLE3=Goodbye Old Missoula
TTITLE4=Georgia Rose
TTITLE5=Your Love is My Rest
TTITLE6=Blue Shadows
TTITLE7=Defying Gravity
TTITLE8=Ripple
TTITLE9=Ramblin' Man
TTITLE10=Darcy Farrow
TTITLE11=Mack the Knife
TTITLE12=DFW
EXTD=YEAR: 2000
EXTT0=
EXTT1=
EXTT2=
EXTT3=
EXTT4=
EXTT5=
EXTT6=
EXTT7=
EXTT8=
EXTT9=
EXTT10=
EXTT11=
EXTT12=
PLAYORDER=
